<svg width="25" height="25" viewBox="0 0 25 25" fill="none" xmlns="http://www.w3.org/2000/svg">
<g filter="url(#filter0_b_291_631)">
<rect width="25" height="25" rx="7" fill="#017EFA" fill-opacity="0.1"/>
</g>
<path d="M17.9125 12.0636C17.9125 15.294 15.2937 17.9128 12.0633 17.9128C8.83289 17.9128 6.21411 15.294 6.21411 12.0636C6.21411 8.83313 8.83289 6.21436 12.0633 6.21436C15.2937 6.21436 17.9125 8.83313 17.9125 12.0636Z" stroke="#017EFA"/>
<path d="M19.3146 20C19.1391 20 18.9635 19.9317 18.8368 19.8048L17.0227 17.9894C16.7594 17.7258 16.7594 17.2964 17.0227 17.0231C17.286 16.7596 17.7152 16.7596 17.9882 17.0231L19.8023 18.8385C20.0656 19.1021 20.0656 19.5315 19.8023 19.8048C19.6658 19.9317 19.4902 20 19.3146 20Z" fill="#017EFA"/>
<defs>
<filter id="filter0_b_291_631" x="-150" y="-150" width="325" height="325" filterUnits="userSpaceOnUse" color-interpolation-filters="sRGB">
<feFlood flood-opacity="0" result="BackgroundImageFix"/>
<feGaussianBlur in="BackgroundImageFix" stdDeviation="75"/>
<feComposite in2="SourceAlpha" operator="in" result="effect1_backgroundBlur_291_631"/>
<feBlend mode="normal" in="SourceGraphic" in2="effect1_backgroundBlur_291_631" result="shape"/>
</filter>
</defs>
</svg>
